<mxfile host="Electron" agent="Mozilla/5.0 (Windows NT 10.0; Win64; x64) AppleWebKit/537.36 (KHTML, like Gecko) draw.io/26.2.15 Chrome/134.0.6998.205 Electron/35.2.1 Safari/537.36" version="26.2.15">
  <diagram name="Page-1" id="yQHIoNuQXVW4_8L3R_kf">
    <mxGraphModel dx="703" dy="914" grid="1" gridSize="10" guides="1" tooltips="1" connect="1" arrows="1" fold="1" page="1" pageScale="1" pageWidth="850" pageHeight="1100" math="0" shadow="0">
      <root>
        <mxCell id="0" />
        <mxCell id="1" parent="0" />
        <mxCell id="pPZMuFNUeKhr5VNqopDP-1" value="Users" style="rounded=1;arcSize=10;whiteSpace=wrap;html=1;align=center;" parent="1" vertex="1">
          <mxGeometry x="420" y="90" width="100" height="40" as="geometry" />
        </mxCell>
        <mxCell id="pPZMuFNUeKhr5VNqopDP-2" value="userId" style="ellipse;whiteSpace=wrap;html=1;align=center;fontStyle=4;" parent="1" vertex="1">
          <mxGeometry x="420" y="10" width="100" height="40" as="geometry" />
        </mxCell>
        <mxCell id="pPZMuFNUeKhr5VNqopDP-3" value="" style="endArrow=none;html=1;rounded=0;exitX=0.5;exitY=0;exitDx=0;exitDy=0;entryX=0.5;entryY=1;entryDx=0;entryDy=0;" parent="1" source="pPZMuFNUeKhr5VNqopDP-1" target="pPZMuFNUeKhr5VNqopDP-2" edge="1">
          <mxGeometry relative="1" as="geometry">
            <mxPoint x="540" y="220" as="sourcePoint" />
            <mxPoint x="470" y="50" as="targetPoint" />
          </mxGeometry>
        </mxCell>
        <mxCell id="pPZMuFNUeKhr5VNqopDP-5" value="username" style="ellipse;whiteSpace=wrap;html=1;align=center;" parent="1" vertex="1">
          <mxGeometry x="310" y="20" width="100" height="40" as="geometry" />
        </mxCell>
        <mxCell id="pPZMuFNUeKhr5VNqopDP-6" value="email" style="ellipse;whiteSpace=wrap;html=1;align=center;" parent="1" vertex="1">
          <mxGeometry x="270" y="120" width="100" height="40" as="geometry" />
        </mxCell>
        <mxCell id="pPZMuFNUeKhr5VNqopDP-7" value="name" style="ellipse;whiteSpace=wrap;html=1;align=center;" parent="1" vertex="1">
          <mxGeometry x="270" y="70" width="100" height="40" as="geometry" />
        </mxCell>
        <mxCell id="pPZMuFNUeKhr5VNqopDP-8" value="phone" style="ellipse;whiteSpace=wrap;html=1;align=center;" parent="1" vertex="1">
          <mxGeometry x="340" y="160" width="100" height="40" as="geometry" />
        </mxCell>
        <mxCell id="pPZMuFNUeKhr5VNqopDP-10" value="" style="endArrow=none;html=1;rounded=0;exitX=1;exitY=1;exitDx=0;exitDy=0;" parent="1" source="pPZMuFNUeKhr5VNqopDP-5" edge="1">
          <mxGeometry relative="1" as="geometry">
            <mxPoint x="540" y="100" as="sourcePoint" />
            <mxPoint x="432" y="90" as="targetPoint" />
          </mxGeometry>
        </mxCell>
        <mxCell id="pPZMuFNUeKhr5VNqopDP-11" value="" style="endArrow=none;html=1;rounded=0;exitX=1;exitY=0.5;exitDx=0;exitDy=0;entryX=0;entryY=0.25;entryDx=0;entryDy=0;" parent="1" source="pPZMuFNUeKhr5VNqopDP-7" target="pPZMuFNUeKhr5VNqopDP-1" edge="1">
          <mxGeometry relative="1" as="geometry">
            <mxPoint x="550" y="119.5" as="sourcePoint" />
            <mxPoint x="710" y="119.5" as="targetPoint" />
          </mxGeometry>
        </mxCell>
        <mxCell id="pPZMuFNUeKhr5VNqopDP-12" value="" style="endArrow=none;html=1;rounded=0;exitX=0.127;exitY=0.993;exitDx=0;exitDy=0;entryX=0.645;entryY=-0.051;entryDx=0;entryDy=0;entryPerimeter=0;exitPerimeter=0;" parent="1" source="pPZMuFNUeKhr5VNqopDP-1" target="pPZMuFNUeKhr5VNqopDP-8" edge="1">
          <mxGeometry relative="1" as="geometry">
            <mxPoint x="390" y="360" as="sourcePoint" />
            <mxPoint x="550" y="370" as="targetPoint" />
          </mxGeometry>
        </mxCell>
        <mxCell id="pPZMuFNUeKhr5VNqopDP-13" value="" style="endArrow=none;html=1;rounded=0;exitX=1;exitY=0.5;exitDx=0;exitDy=0;entryX=0;entryY=0.75;entryDx=0;entryDy=0;" parent="1" source="pPZMuFNUeKhr5VNqopDP-6" target="pPZMuFNUeKhr5VNqopDP-1" edge="1">
          <mxGeometry relative="1" as="geometry">
            <mxPoint x="540" y="300" as="sourcePoint" />
            <mxPoint x="700" y="310" as="targetPoint" />
          </mxGeometry>
        </mxCell>
        <mxCell id="pPZMuFNUeKhr5VNqopDP-14" value="Rooms" style="whiteSpace=wrap;html=1;align=center;rounded=1;" parent="1" vertex="1">
          <mxGeometry x="835" y="680" width="100" height="40" as="geometry" />
        </mxCell>
        <mxCell id="pPZMuFNUeKhr5VNqopDP-15" value="roomID" style="ellipse;whiteSpace=wrap;html=1;align=center;fontStyle=4;" parent="1" vertex="1">
          <mxGeometry x="895" y="590" width="100" height="40" as="geometry" />
        </mxCell>
        <mxCell id="pPZMuFNUeKhr5VNqopDP-16" value="roomDescription" style="ellipse;whiteSpace=wrap;html=1;align=center;" parent="1" vertex="1">
          <mxGeometry x="775" y="590" width="100" height="40" as="geometry" />
        </mxCell>
        <mxCell id="pPZMuFNUeKhr5VNqopDP-17" value="roomTypeId" style="ellipse;whiteSpace=wrap;html=1;align=center;" parent="1" vertex="1">
          <mxGeometry x="935" y="730" width="100" height="40" as="geometry" />
        </mxCell>
        <mxCell id="pPZMuFNUeKhr5VNqopDP-18" value="roomImgs" style="ellipse;whiteSpace=wrap;html=1;align=center;" parent="1" vertex="1">
          <mxGeometry x="745" y="730" width="100" height="40" as="geometry" />
        </mxCell>
        <mxCell id="pPZMuFNUeKhr5VNqopDP-19" value="" style="endArrow=none;html=1;rounded=0;exitX=0.345;exitY=0.912;exitDx=0;exitDy=0;exitPerimeter=0;entryX=0.75;entryY=0;entryDx=0;entryDy=0;" parent="1" source="pPZMuFNUeKhr5VNqopDP-15" target="pPZMuFNUeKhr5VNqopDP-14" edge="1">
          <mxGeometry relative="1" as="geometry">
            <mxPoint x="1005" y="710" as="sourcePoint" />
            <mxPoint x="885" y="720" as="targetPoint" />
          </mxGeometry>
        </mxCell>
        <mxCell id="pPZMuFNUeKhr5VNqopDP-20" value="" style="endArrow=none;html=1;rounded=0;exitX=0.9;exitY=1;exitDx=0;exitDy=0;exitPerimeter=0;entryX=0.25;entryY=0.125;entryDx=0;entryDy=0;entryPerimeter=0;" parent="1" source="pPZMuFNUeKhr5VNqopDP-14" target="pPZMuFNUeKhr5VNqopDP-17" edge="1">
          <mxGeometry relative="1" as="geometry">
            <mxPoint x="935" y="780" as="sourcePoint" />
            <mxPoint x="945" y="740" as="targetPoint" />
          </mxGeometry>
        </mxCell>
        <mxCell id="pPZMuFNUeKhr5VNqopDP-21" value="roomTitle" style="ellipse;whiteSpace=wrap;html=1;align=center;" parent="1" vertex="1">
          <mxGeometry x="960" y="630" width="100" height="40" as="geometry" />
        </mxCell>
        <mxCell id="pPZMuFNUeKhr5VNqopDP-22" value="" style="endArrow=none;html=1;rounded=0;exitX=1;exitY=0;exitDx=0;exitDy=0;entryX=0;entryY=1;entryDx=0;entryDy=0;" parent="1" source="pPZMuFNUeKhr5VNqopDP-14" target="pPZMuFNUeKhr5VNqopDP-21" edge="1">
          <mxGeometry relative="1" as="geometry">
            <mxPoint x="945" y="690" as="sourcePoint" />
            <mxPoint x="1105" y="690" as="targetPoint" />
          </mxGeometry>
        </mxCell>
        <mxCell id="pPZMuFNUeKhr5VNqopDP-24" value="" style="endArrow=none;html=1;rounded=0;exitX=0.31;exitY=-0.05;exitDx=0;exitDy=0;entryX=0.608;entryY=1.09;entryDx=0;entryDy=0;exitPerimeter=0;entryPerimeter=0;" parent="1" source="pPZMuFNUeKhr5VNqopDP-14" target="pPZMuFNUeKhr5VNqopDP-16" edge="1">
          <mxGeometry relative="1" as="geometry">
            <mxPoint x="795" y="780" as="sourcePoint" />
            <mxPoint x="955" y="780" as="targetPoint" />
          </mxGeometry>
        </mxCell>
        <mxCell id="pPZMuFNUeKhr5VNqopDP-25" value="" style="endArrow=none;html=1;rounded=0;exitX=0.25;exitY=0.993;exitDx=0;exitDy=0;entryX=0.642;entryY=0.022;entryDx=0;entryDy=0;exitPerimeter=0;entryPerimeter=0;" parent="1" source="pPZMuFNUeKhr5VNqopDP-14" target="pPZMuFNUeKhr5VNqopDP-18" edge="1">
          <mxGeometry relative="1" as="geometry">
            <mxPoint x="1005" y="890" as="sourcePoint" />
            <mxPoint x="1165" y="890" as="targetPoint" />
          </mxGeometry>
        </mxCell>
        <mxCell id="pPZMuFNUeKhr5VNqopDP-27" value="Bookings" style="whiteSpace=wrap;html=1;align=center;rounded=1;" parent="1" vertex="1">
          <mxGeometry x="835" y="90" width="100" height="40" as="geometry" />
        </mxCell>
        <mxCell id="pPZMuFNUeKhr5VNqopDP-28" value="bookingId" style="ellipse;whiteSpace=wrap;html=1;align=center;fontStyle=4;" parent="1" vertex="1">
          <mxGeometry x="725" y="50" width="100" height="40" as="geometry" />
        </mxCell>
        <mxCell id="pPZMuFNUeKhr5VNqopDP-29" value="userID" style="ellipse;whiteSpace=wrap;html=1;align=center;" parent="1" vertex="1">
          <mxGeometry x="920" y="20" width="100" height="40" as="geometry" />
        </mxCell>
        <mxCell id="pPZMuFNUeKhr5VNqopDP-30" value="checkIndate" style="ellipse;whiteSpace=wrap;html=1;align=center;" parent="1" vertex="1">
          <mxGeometry x="895" y="170" width="100" height="40" as="geometry" />
        </mxCell>
        <mxCell id="pPZMuFNUeKhr5VNqopDP-31" value="checkOutDate" style="ellipse;whiteSpace=wrap;html=1;align=center;" parent="1" vertex="1">
          <mxGeometry x="955" y="130" width="100" height="40" as="geometry" />
        </mxCell>
        <mxCell id="pPZMuFNUeKhr5VNqopDP-32" value="" style="endArrow=none;html=1;rounded=0;exitX=1;exitY=1;exitDx=0;exitDy=0;entryX=0;entryY=0;entryDx=0;entryDy=0;" parent="1" source="pPZMuFNUeKhr5VNqopDP-28" target="pPZMuFNUeKhr5VNqopDP-27" edge="1">
          <mxGeometry relative="1" as="geometry">
            <mxPoint x="830" y="80" as="sourcePoint" />
            <mxPoint x="830" y="90" as="targetPoint" />
          </mxGeometry>
        </mxCell>
        <mxCell id="pPZMuFNUeKhr5VNqopDP-33" value="" style="endArrow=none;html=1;rounded=0;exitX=0.75;exitY=1;exitDx=0;exitDy=0;entryX=0.312;entryY=0.017;entryDx=0;entryDy=0;entryPerimeter=0;" parent="1" source="pPZMuFNUeKhr5VNqopDP-27" target="pPZMuFNUeKhr5VNqopDP-30" edge="1">
          <mxGeometry relative="1" as="geometry">
            <mxPoint x="935" y="190" as="sourcePoint" />
            <mxPoint x="1095" y="190" as="targetPoint" />
          </mxGeometry>
        </mxCell>
        <mxCell id="pPZMuFNUeKhr5VNqopDP-34" value="roomID" style="ellipse;whiteSpace=wrap;html=1;align=center;" parent="1" vertex="1">
          <mxGeometry x="810" y="20" width="100" height="40" as="geometry" />
        </mxCell>
        <mxCell id="pPZMuFNUeKhr5VNqopDP-35" value="" style="endArrow=none;html=1;rounded=0;exitX=0.437;exitY=-0.025;exitDx=0;exitDy=0;entryX=0.5;entryY=1;entryDx=0;entryDy=0;exitPerimeter=0;" parent="1" source="pPZMuFNUeKhr5VNqopDP-27" target="pPZMuFNUeKhr5VNqopDP-34" edge="1">
          <mxGeometry relative="1" as="geometry">
            <mxPoint x="945" y="100" as="sourcePoint" />
            <mxPoint x="898" y="70" as="targetPoint" />
          </mxGeometry>
        </mxCell>
        <mxCell id="pPZMuFNUeKhr5VNqopDP-36" value="" style="endArrow=none;html=1;rounded=0;exitX=0.75;exitY=0;exitDx=0;exitDy=0;entryX=0.228;entryY=0.892;entryDx=0;entryDy=0;entryPerimeter=0;" parent="1" source="pPZMuFNUeKhr5VNqopDP-27" target="pPZMuFNUeKhr5VNqopDP-29" edge="1">
          <mxGeometry relative="1" as="geometry">
            <mxPoint x="795" y="190" as="sourcePoint" />
            <mxPoint x="970" y="140" as="targetPoint" />
          </mxGeometry>
        </mxCell>
        <mxCell id="pPZMuFNUeKhr5VNqopDP-37" value="" style="endArrow=none;html=1;rounded=0;entryX=0;entryY=0;entryDx=0;entryDy=0;exitX=1;exitY=0.75;exitDx=0;exitDy=0;" parent="1" source="pPZMuFNUeKhr5VNqopDP-27" target="pPZMuFNUeKhr5VNqopDP-31" edge="1">
          <mxGeometry relative="1" as="geometry">
            <mxPoint x="890" y="130" as="sourcePoint" />
            <mxPoint x="910" y="160" as="targetPoint" />
          </mxGeometry>
        </mxCell>
        <mxCell id="pPZMuFNUeKhr5VNqopDP-39" value="Reviews" style="whiteSpace=wrap;html=1;align=center;rounded=1;" parent="1" vertex="1">
          <mxGeometry x="420" y="680" width="100" height="40" as="geometry" />
        </mxCell>
        <mxCell id="pPZMuFNUeKhr5VNqopDP-40" value="reviewID" style="ellipse;whiteSpace=wrap;html=1;align=center;fontStyle=4;" parent="1" vertex="1">
          <mxGeometry x="310" y="630" width="100" height="40" as="geometry" />
        </mxCell>
        <mxCell id="pPZMuFNUeKhr5VNqopDP-41" value="userID" style="ellipse;whiteSpace=wrap;html=1;align=center;" parent="1" vertex="1">
          <mxGeometry x="290" y="680" width="100" height="40" as="geometry" />
        </mxCell>
        <mxCell id="pPZMuFNUeKhr5VNqopDP-42" value="bookingID" style="ellipse;whiteSpace=wrap;html=1;align=center;" parent="1" vertex="1">
          <mxGeometry x="530" y="740" width="100" height="40" as="geometry" />
        </mxCell>
        <mxCell id="pPZMuFNUeKhr5VNqopDP-43" value="reviewContent" style="ellipse;whiteSpace=wrap;html=1;align=center;" parent="1" vertex="1">
          <mxGeometry x="420" y="750" width="100" height="40" as="geometry" />
        </mxCell>
        <mxCell id="pPZMuFNUeKhr5VNqopDP-44" value="" style="endArrow=none;html=1;rounded=0;exitX=1;exitY=1;exitDx=0;exitDy=0;entryX=0;entryY=0;entryDx=0;entryDy=0;" parent="1" source="pPZMuFNUeKhr5VNqopDP-40" target="pPZMuFNUeKhr5VNqopDP-39" edge="1">
          <mxGeometry relative="1" as="geometry">
            <mxPoint x="590" y="710" as="sourcePoint" />
            <mxPoint x="750" y="710" as="targetPoint" />
          </mxGeometry>
        </mxCell>
        <mxCell id="pPZMuFNUeKhr5VNqopDP-45" value="" style="endArrow=none;html=1;rounded=0;exitX=1;exitY=1;exitDx=0;exitDy=0;entryX=0;entryY=0;entryDx=0;entryDy=0;" parent="1" source="pPZMuFNUeKhr5VNqopDP-39" target="pPZMuFNUeKhr5VNqopDP-42" edge="1">
          <mxGeometry relative="1" as="geometry">
            <mxPoint x="520" y="780" as="sourcePoint" />
            <mxPoint x="680" y="780" as="targetPoint" />
          </mxGeometry>
        </mxCell>
        <mxCell id="pPZMuFNUeKhr5VNqopDP-46" value="roomID" style="ellipse;whiteSpace=wrap;html=1;align=center;" parent="1" vertex="1">
          <mxGeometry x="525" y="630" width="100" height="40" as="geometry" />
        </mxCell>
        <mxCell id="pPZMuFNUeKhr5VNqopDP-47" value="" style="endArrow=none;html=1;rounded=0;exitX=1;exitY=0;exitDx=0;exitDy=0;entryX=0;entryY=1;entryDx=0;entryDy=0;" parent="1" source="pPZMuFNUeKhr5VNqopDP-39" target="pPZMuFNUeKhr5VNqopDP-46" edge="1">
          <mxGeometry relative="1" as="geometry">
            <mxPoint x="530" y="690" as="sourcePoint" />
            <mxPoint x="690" y="690" as="targetPoint" />
          </mxGeometry>
        </mxCell>
        <mxCell id="pPZMuFNUeKhr5VNqopDP-48" value="" style="endArrow=none;html=1;rounded=0;entryX=1;entryY=0.5;entryDx=0;entryDy=0;exitX=0;exitY=0.5;exitDx=0;exitDy=0;" parent="1" source="pPZMuFNUeKhr5VNqopDP-39" target="pPZMuFNUeKhr5VNqopDP-41" edge="1">
          <mxGeometry relative="1" as="geometry">
            <mxPoint x="390" y="698" as="sourcePoint" />
            <mxPoint x="540" y="780" as="targetPoint" />
          </mxGeometry>
        </mxCell>
        <mxCell id="pPZMuFNUeKhr5VNqopDP-49" value="" style="endArrow=none;html=1;rounded=0;exitX=0.5;exitY=1;exitDx=0;exitDy=0;entryX=0.5;entryY=0;entryDx=0;entryDy=0;" parent="1" source="pPZMuFNUeKhr5VNqopDP-39" target="pPZMuFNUeKhr5VNqopDP-43" edge="1">
          <mxGeometry relative="1" as="geometry">
            <mxPoint x="590" y="890" as="sourcePoint" />
            <mxPoint x="750" y="890" as="targetPoint" />
          </mxGeometry>
        </mxCell>
        <mxCell id="Nt7ezWrXQb7OiOiJ3uoh-1" value="isStaff" style="ellipse;whiteSpace=wrap;html=1;align=center;" parent="1" vertex="1">
          <mxGeometry x="525" y="20" width="100" height="40" as="geometry" />
        </mxCell>
        <mxCell id="Nt7ezWrXQb7OiOiJ3uoh-2" value="roleName" style="ellipse;whiteSpace=wrap;html=1;align=center;" parent="1" vertex="1">
          <mxGeometry x="540" y="150" width="100" height="40" as="geometry" />
        </mxCell>
        <mxCell id="Nt7ezWrXQb7OiOiJ3uoh-3" style="edgeStyle=orthogonalEdgeStyle;rounded=0;orthogonalLoop=1;jettySize=auto;html=1;exitX=0.5;exitY=1;exitDx=0;exitDy=0;" parent="1" source="pPZMuFNUeKhr5VNqopDP-6" target="pPZMuFNUeKhr5VNqopDP-6" edge="1">
          <mxGeometry relative="1" as="geometry" />
        </mxCell>
        <mxCell id="Nt7ezWrXQb7OiOiJ3uoh-8" value="" style="endArrow=none;html=1;rounded=0;entryX=0.257;entryY=0.944;entryDx=0;entryDy=0;exitX=1;exitY=0;exitDx=0;exitDy=0;entryPerimeter=0;" parent="1" source="pPZMuFNUeKhr5VNqopDP-1" target="Nt7ezWrXQb7OiOiJ3uoh-1" edge="1">
          <mxGeometry relative="1" as="geometry">
            <mxPoint x="590" y="150" as="sourcePoint" />
            <mxPoint x="710" y="140" as="targetPoint" />
          </mxGeometry>
        </mxCell>
        <mxCell id="Nt7ezWrXQb7OiOiJ3uoh-9" value="" style="endArrow=none;html=1;rounded=0;exitX=1;exitY=1;exitDx=0;exitDy=0;entryX=0;entryY=0;entryDx=0;entryDy=0;" parent="1" source="pPZMuFNUeKhr5VNqopDP-1" target="Nt7ezWrXQb7OiOiJ3uoh-2" edge="1">
          <mxGeometry relative="1" as="geometry">
            <mxPoint x="590" y="220" as="sourcePoint" />
            <mxPoint x="750" y="220" as="targetPoint" />
          </mxGeometry>
        </mxCell>
        <mxCell id="Nt7ezWrXQb7OiOiJ3uoh-10" value="roomStatus" style="ellipse;whiteSpace=wrap;html=1;align=center;" parent="1" vertex="1">
          <mxGeometry x="725" y="640" width="100" height="40" as="geometry" />
        </mxCell>
        <mxCell id="Nt7ezWrXQb7OiOiJ3uoh-11" value="" style="endArrow=none;html=1;rounded=0;exitX=1;exitY=1;exitDx=0;exitDy=0;entryX=0;entryY=0;entryDx=0;entryDy=0;" parent="1" source="Nt7ezWrXQb7OiOiJ3uoh-10" target="pPZMuFNUeKhr5VNqopDP-14" edge="1">
          <mxGeometry relative="1" as="geometry">
            <mxPoint x="760" y="740" as="sourcePoint" />
            <mxPoint x="830" y="680" as="targetPoint" />
          </mxGeometry>
        </mxCell>
        <mxCell id="Nt7ezWrXQb7OiOiJ3uoh-13" value="" style="edgeStyle=entityRelationEdgeStyle;fontSize=12;html=1;endArrow=ERoneToMany;rounded=0;strokeWidth=1;endSize=10;startArrow=none;startFill=0;exitX=1;exitY=0.5;exitDx=0;exitDy=0;entryX=0;entryY=0.5;entryDx=0;entryDy=0;" parent="1" source="Nt7ezWrXQb7OiOiJ3uoh-14" target="pPZMuFNUeKhr5VNqopDP-27" edge="1">
          <mxGeometry width="100" height="100" relative="1" as="geometry">
            <mxPoint x="650" y="260" as="sourcePoint" />
            <mxPoint x="785" y="260" as="targetPoint" />
            <Array as="points">
              <mxPoint x="725" y="220" />
              <mxPoint x="725" y="210" />
            </Array>
          </mxGeometry>
        </mxCell>
        <mxCell id="Nt7ezWrXQb7OiOiJ3uoh-14" value="made" style="shape=rhombus;perimeter=rhombusPerimeter;whiteSpace=wrap;html=1;align=center;" parent="1" vertex="1">
          <mxGeometry x="625" y="80" width="120" height="60" as="geometry" />
        </mxCell>
        <mxCell id="Nt7ezWrXQb7OiOiJ3uoh-16" value="" style="endArrow=none;html=1;rounded=0;exitX=1;exitY=0.5;exitDx=0;exitDy=0;entryX=0;entryY=0.5;entryDx=0;entryDy=0;" parent="1" source="pPZMuFNUeKhr5VNqopDP-1" target="Nt7ezWrXQb7OiOiJ3uoh-14" edge="1">
          <mxGeometry relative="1" as="geometry">
            <mxPoint x="660" y="270" as="sourcePoint" />
            <mxPoint x="820" y="270" as="targetPoint" />
          </mxGeometry>
        </mxCell>
        <mxCell id="Nt7ezWrXQb7OiOiJ3uoh-17" value="BookingDetails" style="whiteSpace=wrap;html=1;align=center;rounded=1;" parent="1" vertex="1">
          <mxGeometry x="835" y="360" width="100" height="40" as="geometry" />
        </mxCell>
        <mxCell id="Nt7ezWrXQb7OiOiJ3uoh-22" value="&lt;span style=&quot;text-align: left;&quot;&gt;bookingDetailId&lt;/span&gt;" style="ellipse;whiteSpace=wrap;html=1;align=center;fontStyle=4;" parent="1" vertex="1">
          <mxGeometry x="740" y="300" width="100" height="40" as="geometry" />
        </mxCell>
        <mxCell id="Nt7ezWrXQb7OiOiJ3uoh-23" value="&lt;span style=&quot;text-align: left;&quot;&gt;bookingId&lt;/span&gt;" style="ellipse;whiteSpace=wrap;html=1;align=center;" parent="1" vertex="1">
          <mxGeometry x="935" y="300" width="100" height="40" as="geometry" />
        </mxCell>
        <mxCell id="Nt7ezWrXQb7OiOiJ3uoh-24" value="roomId" style="ellipse;whiteSpace=wrap;html=1;align=center;" parent="1" vertex="1">
          <mxGeometry x="960" y="360" width="100" height="40" as="geometry" />
        </mxCell>
        <mxCell id="Nt7ezWrXQb7OiOiJ3uoh-25" value="pricePerNight" style="ellipse;whiteSpace=wrap;html=1;align=center;" parent="1" vertex="1">
          <mxGeometry x="775" y="420" width="100" height="40" as="geometry" />
        </mxCell>
        <mxCell id="Nt7ezWrXQb7OiOiJ3uoh-26" value="roomPriceTotal" style="ellipse;whiteSpace=wrap;html=1;align=center;" parent="1" vertex="1">
          <mxGeometry x="895" y="420" width="100" height="40" as="geometry" />
        </mxCell>
        <mxCell id="Nt7ezWrXQb7OiOiJ3uoh-28" value="" style="endArrow=none;html=1;rounded=0;exitX=0.5;exitY=0;exitDx=0;exitDy=0;" parent="1" source="Nt7ezWrXQb7OiOiJ3uoh-25" target="Nt7ezWrXQb7OiOiJ3uoh-17" edge="1">
          <mxGeometry relative="1" as="geometry">
            <mxPoint x="835" y="510" as="sourcePoint" />
            <mxPoint x="875" y="403" as="targetPoint" />
          </mxGeometry>
        </mxCell>
        <mxCell id="Nt7ezWrXQb7OiOiJ3uoh-29" value="" style="endArrow=none;html=1;rounded=0;exitX=1;exitY=0;exitDx=0;exitDy=0;" parent="1" source="Nt7ezWrXQb7OiOiJ3uoh-17" target="Nt7ezWrXQb7OiOiJ3uoh-23" edge="1">
          <mxGeometry relative="1" as="geometry">
            <mxPoint x="840" y="510" as="sourcePoint" />
            <mxPoint x="1000" y="510" as="targetPoint" />
          </mxGeometry>
        </mxCell>
        <mxCell id="Nt7ezWrXQb7OiOiJ3uoh-30" value="" style="endArrow=none;html=1;rounded=0;exitX=0.75;exitY=1;exitDx=0;exitDy=0;" parent="1" source="Nt7ezWrXQb7OiOiJ3uoh-17" edge="1">
          <mxGeometry relative="1" as="geometry">
            <mxPoint x="850" y="520" as="sourcePoint" />
            <mxPoint x="923" y="420" as="targetPoint" />
          </mxGeometry>
        </mxCell>
        <mxCell id="Nt7ezWrXQb7OiOiJ3uoh-31" value="" style="endArrow=none;html=1;rounded=0;exitX=0.772;exitY=0.946;exitDx=0;exitDy=0;exitPerimeter=0;entryX=0;entryY=0;entryDx=0;entryDy=0;entryPerimeter=0;" parent="1" source="Nt7ezWrXQb7OiOiJ3uoh-22" target="Nt7ezWrXQb7OiOiJ3uoh-17" edge="1">
          <mxGeometry relative="1" as="geometry">
            <mxPoint x="860" y="530" as="sourcePoint" />
            <mxPoint x="1020" y="530" as="targetPoint" />
          </mxGeometry>
        </mxCell>
        <mxCell id="Nt7ezWrXQb7OiOiJ3uoh-32" value="" style="endArrow=none;html=1;rounded=0;exitX=1;exitY=0.5;exitDx=0;exitDy=0;entryX=0;entryY=0.5;entryDx=0;entryDy=0;" parent="1" source="Nt7ezWrXQb7OiOiJ3uoh-17" target="Nt7ezWrXQb7OiOiJ3uoh-24" edge="1">
          <mxGeometry relative="1" as="geometry">
            <mxPoint x="870" y="540" as="sourcePoint" />
            <mxPoint x="1030" y="540" as="targetPoint" />
          </mxGeometry>
        </mxCell>
        <mxCell id="Nt7ezWrXQb7OiOiJ3uoh-43" value="includes" style="shape=rhombus;perimeter=rhombusPerimeter;whiteSpace=wrap;html=1;align=center;" parent="1" vertex="1">
          <mxGeometry x="825" y="230" width="120" height="60" as="geometry" />
        </mxCell>
        <mxCell id="Nt7ezWrXQb7OiOiJ3uoh-44" value="" style="fontSize=12;html=1;endArrow=ERoneToMany;rounded=0;strokeWidth=1;endSize=10;startArrow=none;startFill=0;entryX=0.5;entryY=1;entryDx=0;entryDy=0;exitX=0.5;exitY=0;exitDx=0;exitDy=0;" parent="1" source="Nt7ezWrXQb7OiOiJ3uoh-43" target="pPZMuFNUeKhr5VNqopDP-27" edge="1">
          <mxGeometry width="100" height="100" relative="1" as="geometry">
            <mxPoint x="880" y="230" as="sourcePoint" />
            <mxPoint x="707.5" y="310" as="targetPoint" />
          </mxGeometry>
        </mxCell>
        <mxCell id="Nt7ezWrXQb7OiOiJ3uoh-45" value="" style="endArrow=none;html=1;rounded=0;exitX=0.5;exitY=1;exitDx=0;exitDy=0;entryX=0.5;entryY=0;entryDx=0;entryDy=0;" parent="1" source="Nt7ezWrXQb7OiOiJ3uoh-43" target="Nt7ezWrXQb7OiOiJ3uoh-17" edge="1">
          <mxGeometry relative="1" as="geometry">
            <mxPoint x="635" y="350" as="sourcePoint" />
            <mxPoint x="885" y="360" as="targetPoint" />
          </mxGeometry>
        </mxCell>
        <mxCell id="Nt7ezWrXQb7OiOiJ3uoh-46" style="edgeStyle=orthogonalEdgeStyle;rounded=0;orthogonalLoop=1;jettySize=auto;html=1;exitX=0.5;exitY=1;exitDx=0;exitDy=0;" parent="1" source="pPZMuFNUeKhr5VNqopDP-31" target="pPZMuFNUeKhr5VNqopDP-31" edge="1">
          <mxGeometry relative="1" as="geometry" />
        </mxCell>
        <mxCell id="Nt7ezWrXQb7OiOiJ3uoh-48" value="&lt;span style=&quot;text-align: left;&quot;&gt;assigned to&lt;/span&gt;" style="shape=rhombus;perimeter=rhombusPerimeter;whiteSpace=wrap;html=1;align=center;" parent="1" vertex="1">
          <mxGeometry x="825" y="520" width="120" height="60" as="geometry" />
        </mxCell>
        <mxCell id="Nt7ezWrXQb7OiOiJ3uoh-52" value="" style="fontSize=12;html=1;endArrow=ERoneToMany;rounded=0;strokeWidth=1;endSize=10;startArrow=none;startFill=0;entryX=0.5;entryY=0;entryDx=0;entryDy=0;exitX=0.5;exitY=1;exitDx=0;exitDy=0;" parent="1" source="Nt7ezWrXQb7OiOiJ3uoh-48" target="pPZMuFNUeKhr5VNqopDP-14" edge="1">
          <mxGeometry width="100" height="100" relative="1" as="geometry">
            <mxPoint x="580" y="710" as="sourcePoint" />
            <mxPoint x="440" y="950" as="targetPoint" />
          </mxGeometry>
        </mxCell>
        <mxCell id="Nt7ezWrXQb7OiOiJ3uoh-53" value="" style="fontSize=12;html=1;endArrow=ERoneToMany;rounded=0;strokeWidth=1;endSize=10;startArrow=none;startFill=0;entryX=0.5;entryY=1;entryDx=0;entryDy=0;exitX=0.5;exitY=0;exitDx=0;exitDy=0;" parent="1" source="Nt7ezWrXQb7OiOiJ3uoh-48" target="Nt7ezWrXQb7OiOiJ3uoh-17" edge="1">
          <mxGeometry width="100" height="100" relative="1" as="geometry">
            <mxPoint x="900" y="530" as="sourcePoint" />
            <mxPoint x="1090" y="290" as="targetPoint" />
          </mxGeometry>
        </mxCell>
        <mxCell id="Nt7ezWrXQb7OiOiJ3uoh-54" value="RoomType" style="rounded=1;arcSize=10;whiteSpace=wrap;html=1;align=center;" parent="1" vertex="1">
          <mxGeometry x="835" y="970" width="100" height="40" as="geometry" />
        </mxCell>
        <mxCell id="Nt7ezWrXQb7OiOiJ3uoh-55" value="roomTypeId" style="ellipse;whiteSpace=wrap;html=1;align=center;fontStyle=4;" parent="1" vertex="1">
          <mxGeometry x="740" y="920" width="100" height="40" as="geometry" />
        </mxCell>
        <mxCell id="Nt7ezWrXQb7OiOiJ3uoh-56" value="description" style="ellipse;whiteSpace=wrap;html=1;align=center;" parent="1" vertex="1">
          <mxGeometry x="930" y="920" width="100" height="40" as="geometry" />
        </mxCell>
        <mxCell id="Nt7ezWrXQb7OiOiJ3uoh-57" value="amenities" style="ellipse;whiteSpace=wrap;html=1;align=center;" parent="1" vertex="1">
          <mxGeometry x="945" y="1020" width="100" height="40" as="geometry" />
        </mxCell>
        <mxCell id="Nt7ezWrXQb7OiOiJ3uoh-58" value="features" style="ellipse;whiteSpace=wrap;html=1;align=center;" parent="1" vertex="1">
          <mxGeometry x="970" y="970" width="100" height="40" as="geometry" />
        </mxCell>
        <mxCell id="Nt7ezWrXQb7OiOiJ3uoh-59" value="img" style="ellipse;whiteSpace=wrap;html=1;align=center;" parent="1" vertex="1">
          <mxGeometry x="835" y="1040" width="100" height="40" as="geometry" />
        </mxCell>
        <mxCell id="Nt7ezWrXQb7OiOiJ3uoh-60" value="price" style="ellipse;whiteSpace=wrap;html=1;align=center;" parent="1" vertex="1">
          <mxGeometry x="730" y="1020" width="100" height="40" as="geometry" />
        </mxCell>
        <mxCell id="Nt7ezWrXQb7OiOiJ3uoh-62" value="" style="endArrow=none;html=1;rounded=0;exitX=0.713;exitY=0.947;exitDx=0;exitDy=0;exitPerimeter=0;entryX=0;entryY=0;entryDx=0;entryDy=0;" parent="1" source="Nt7ezWrXQb7OiOiJ3uoh-55" target="Nt7ezWrXQb7OiOiJ3uoh-54" edge="1">
          <mxGeometry relative="1" as="geometry">
            <mxPoint x="640" y="990" as="sourcePoint" />
            <mxPoint x="800" y="990" as="targetPoint" />
          </mxGeometry>
        </mxCell>
        <mxCell id="Nt7ezWrXQb7OiOiJ3uoh-63" value="" style="endArrow=none;html=1;rounded=0;exitX=0;exitY=1;exitDx=0;exitDy=0;entryX=1;entryY=0;entryDx=0;entryDy=0;" parent="1" source="Nt7ezWrXQb7OiOiJ3uoh-54" target="Nt7ezWrXQb7OiOiJ3uoh-60" edge="1">
          <mxGeometry relative="1" as="geometry">
            <mxPoint x="580" y="999.4099999999999" as="sourcePoint" />
            <mxPoint x="740" y="999.4099999999999" as="targetPoint" />
          </mxGeometry>
        </mxCell>
        <mxCell id="Nt7ezWrXQb7OiOiJ3uoh-64" value="" style="endArrow=none;html=1;rounded=0;entryX=1;entryY=0;entryDx=0;entryDy=0;exitX=0.201;exitY=0.932;exitDx=0;exitDy=0;exitPerimeter=0;" parent="1" source="Nt7ezWrXQb7OiOiJ3uoh-56" target="Nt7ezWrXQb7OiOiJ3uoh-54" edge="1">
          <mxGeometry relative="1" as="geometry">
            <mxPoint x="950" y="970" as="sourcePoint" />
            <mxPoint x="750" y="940" as="targetPoint" />
          </mxGeometry>
        </mxCell>
        <mxCell id="Nt7ezWrXQb7OiOiJ3uoh-65" value="" style="endArrow=none;html=1;rounded=0;exitX=1;exitY=0.5;exitDx=0;exitDy=0;entryX=0;entryY=0.5;entryDx=0;entryDy=0;" parent="1" source="Nt7ezWrXQb7OiOiJ3uoh-54" target="Nt7ezWrXQb7OiOiJ3uoh-58" edge="1">
          <mxGeometry relative="1" as="geometry">
            <mxPoint x="760" y="1070" as="sourcePoint" />
            <mxPoint x="920" y="1070" as="targetPoint" />
          </mxGeometry>
        </mxCell>
        <mxCell id="Nt7ezWrXQb7OiOiJ3uoh-66" value="" style="endArrow=none;html=1;rounded=0;exitX=1;exitY=1;exitDx=0;exitDy=0;entryX=0;entryY=0;entryDx=0;entryDy=0;" parent="1" source="Nt7ezWrXQb7OiOiJ3uoh-54" target="Nt7ezWrXQb7OiOiJ3uoh-57" edge="1">
          <mxGeometry relative="1" as="geometry">
            <mxPoint x="720" y="1070" as="sourcePoint" />
            <mxPoint x="880" y="1070" as="targetPoint" />
          </mxGeometry>
        </mxCell>
        <mxCell id="Nt7ezWrXQb7OiOiJ3uoh-67" value="" style="endArrow=none;html=1;rounded=0;entryX=0.5;entryY=0;entryDx=0;entryDy=0;" parent="1" target="Nt7ezWrXQb7OiOiJ3uoh-59" edge="1">
          <mxGeometry relative="1" as="geometry">
            <mxPoint x="885" y="1010" as="sourcePoint" />
            <mxPoint x="760" y="1019.4099999999999" as="targetPoint" />
          </mxGeometry>
        </mxCell>
        <mxCell id="Nt7ezWrXQb7OiOiJ3uoh-68" value="has" style="shape=rhombus;perimeter=rhombusPerimeter;whiteSpace=wrap;html=1;align=center;" parent="1" vertex="1">
          <mxGeometry x="825" y="810" width="120" height="60" as="geometry" />
        </mxCell>
        <mxCell id="Nt7ezWrXQb7OiOiJ3uoh-69" value="" style="fontSize=12;html=1;endArrow=ERoneToMany;rounded=0;strokeWidth=1;endSize=10;startArrow=none;startFill=0;entryX=0.5;entryY=0;entryDx=0;entryDy=0;exitX=0.5;exitY=1;exitDx=0;exitDy=0;" parent="1" source="pPZMuFNUeKhr5VNqopDP-14" target="Nt7ezWrXQb7OiOiJ3uoh-68" edge="1">
          <mxGeometry width="100" height="100" relative="1" as="geometry">
            <mxPoint x="981" y="846" as="sourcePoint" />
            <mxPoint x="966" y="1186" as="targetPoint" />
          </mxGeometry>
        </mxCell>
        <mxCell id="Nt7ezWrXQb7OiOiJ3uoh-71" value="" style="endArrow=none;html=1;rounded=0;exitX=0.5;exitY=1;exitDx=0;exitDy=0;entryX=0.5;entryY=0;entryDx=0;entryDy=0;" parent="1" source="Nt7ezWrXQb7OiOiJ3uoh-68" target="Nt7ezWrXQb7OiOiJ3uoh-54" edge="1">
          <mxGeometry relative="1" as="geometry">
            <mxPoint x="885" y="898" as="sourcePoint" />
            <mxPoint x="1035" y="1258" as="targetPoint" />
          </mxGeometry>
        </mxCell>
        <mxCell id="xizNLoTrmOQnTAkn3QBC-4" value="rating" style="ellipse;whiteSpace=wrap;html=1;align=center;" parent="1" vertex="1">
          <mxGeometry x="310" y="740" width="100" height="40" as="geometry" />
        </mxCell>
        <mxCell id="xizNLoTrmOQnTAkn3QBC-5" value="" style="endArrow=none;html=1;rounded=0;entryX=0;entryY=1;entryDx=0;entryDy=0;exitX=0.77;exitY=0.05;exitDx=0;exitDy=0;exitPerimeter=0;" parent="1" source="xizNLoTrmOQnTAkn3QBC-4" target="pPZMuFNUeKhr5VNqopDP-39" edge="1">
          <mxGeometry relative="1" as="geometry">
            <mxPoint x="45" y="612" as="sourcePoint" />
            <mxPoint x="205" y="612" as="targetPoint" />
          </mxGeometry>
        </mxCell>
        <mxCell id="aZpTDbssM8xVi3ptUcBP-1" value="wrote" style="shape=rhombus;perimeter=rhombusPerimeter;whiteSpace=wrap;html=1;align=center;" parent="1" vertex="1">
          <mxGeometry x="410" y="350" width="120" height="60" as="geometry" />
        </mxCell>
        <mxCell id="aZpTDbssM8xVi3ptUcBP-2" value="" style="endArrow=none;html=1;rounded=0;exitX=0.5;exitY=1;exitDx=0;exitDy=0;entryX=0.5;entryY=0;entryDx=0;entryDy=0;" parent="1" source="aZpTDbssM8xVi3ptUcBP-1" target="pPZMuFNUeKhr5VNqopDP-39" edge="1">
          <mxGeometry relative="1" as="geometry">
            <mxPoint x="360" y="740" as="sourcePoint" />
            <mxPoint x="520" y="740" as="targetPoint" />
          </mxGeometry>
        </mxCell>
        <mxCell id="aZpTDbssM8xVi3ptUcBP-3" value="" style="fontSize=12;html=1;endArrow=ERoneToMany;rounded=0;endSize=10;exitX=0.5;exitY=0;exitDx=0;exitDy=0;entryX=0.5;entryY=1;entryDx=0;entryDy=0;" parent="1" source="aZpTDbssM8xVi3ptUcBP-1" target="pPZMuFNUeKhr5VNqopDP-1" edge="1">
          <mxGeometry width="100" height="100" relative="1" as="geometry">
            <mxPoint x="540" y="690" as="sourcePoint" />
            <mxPoint x="520" y="280" as="targetPoint" />
          </mxGeometry>
        </mxCell>
        <mxCell id="aZpTDbssM8xVi3ptUcBP-4" value="review in" style="shape=rhombus;perimeter=rhombusPerimeter;whiteSpace=wrap;html=1;align=center;" parent="1" vertex="1">
          <mxGeometry x="610" y="670" width="120" height="60" as="geometry" />
        </mxCell>
        <mxCell id="aZpTDbssM8xVi3ptUcBP-5" value="" style="fontSize=12;html=1;endArrow=ERoneToMany;rounded=0;endSize=10;exitX=1;exitY=0.5;exitDx=0;exitDy=0;entryX=0;entryY=0.5;entryDx=0;entryDy=0;" parent="1" source="aZpTDbssM8xVi3ptUcBP-4" target="pPZMuFNUeKhr5VNqopDP-14" edge="1">
          <mxGeometry width="100" height="100" relative="1" as="geometry">
            <mxPoint x="684" y="240" as="sourcePoint" />
            <mxPoint x="684" y="590" as="targetPoint" />
          </mxGeometry>
        </mxCell>
        <mxCell id="aZpTDbssM8xVi3ptUcBP-6" value="" style="endArrow=none;html=1;rounded=0;exitX=0;exitY=0.5;exitDx=0;exitDy=0;entryX=1;entryY=0.5;entryDx=0;entryDy=0;" parent="1" source="aZpTDbssM8xVi3ptUcBP-4" target="pPZMuFNUeKhr5VNqopDP-39" edge="1">
          <mxGeometry relative="1" as="geometry">
            <mxPoint x="550" y="-28" as="sourcePoint" />
            <mxPoint x="550" y="410" as="targetPoint" />
          </mxGeometry>
        </mxCell>
        <mxCell id="aZpTDbssM8xVi3ptUcBP-9" value="for" style="shape=rhombus;perimeter=rhombusPerimeter;whiteSpace=wrap;html=1;align=center;" parent="1" vertex="1">
          <mxGeometry x="580" y="350" width="120" height="60" as="geometry" />
        </mxCell>
        <mxCell id="aZpTDbssM8xVi3ptUcBP-10" value="" style="endArrow=none;html=1;rounded=0;entryX=0.5;entryY=0;entryDx=0;entryDy=0;exitX=0.12;exitY=1.037;exitDx=0;exitDy=0;exitPerimeter=0;" parent="1" source="pPZMuFNUeKhr5VNqopDP-27" target="aZpTDbssM8xVi3ptUcBP-9" edge="1">
          <mxGeometry relative="1" as="geometry">
            <mxPoint x="775" y="210" as="sourcePoint" />
            <mxPoint x="695" y="485" as="targetPoint" />
          </mxGeometry>
        </mxCell>
        <mxCell id="aZpTDbssM8xVi3ptUcBP-11" value="" style="fontSize=12;html=1;endArrow=ERoneToMany;rounded=0;endSize=10;exitX=0.5;exitY=1;exitDx=0;exitDy=0;shadow=0;flowAnimation=0;jumpStyle=none;entryX=0.8;entryY=0;entryDx=0;entryDy=0;entryPerimeter=0;" parent="1" source="aZpTDbssM8xVi3ptUcBP-9" target="pPZMuFNUeKhr5VNqopDP-39" edge="1">
          <mxGeometry width="100" height="100" relative="1" as="geometry">
            <mxPoint x="530" y="575" as="sourcePoint" />
            <mxPoint x="500" y="670" as="targetPoint" />
            <Array as="points">
              <mxPoint x="500" y="660" />
            </Array>
          </mxGeometry>
        </mxCell>
        <mxCell id="aZpTDbssM8xVi3ptUcBP-13" value="RoomService" style="rounded=1;arcSize=10;whiteSpace=wrap;html=1;align=center;" parent="1" vertex="1">
          <mxGeometry x="1280" y="680" width="100" height="40" as="geometry" />
        </mxCell>
        <mxCell id="aZpTDbssM8xVi3ptUcBP-15" value="roomServiceId" style="ellipse;whiteSpace=wrap;html=1;align=center;fontStyle=4;" parent="1" vertex="1">
          <mxGeometry x="1190" y="620" width="100" height="40" as="geometry" />
        </mxCell>
        <mxCell id="aZpTDbssM8xVi3ptUcBP-16" value="isCleaning" style="ellipse;whiteSpace=wrap;html=1;align=center;" parent="1" vertex="1">
          <mxGeometry x="1410" y="690" width="100" height="40" as="geometry" />
        </mxCell>
        <mxCell id="aZpTDbssM8xVi3ptUcBP-17" value="roomId" style="ellipse;whiteSpace=wrap;html=1;align=center;" parent="1" vertex="1">
          <mxGeometry x="1300" y="610" width="100" height="40" as="geometry" />
        </mxCell>
        <mxCell id="aZpTDbssM8xVi3ptUcBP-18" value="datetime" style="ellipse;whiteSpace=wrap;html=1;align=center;" parent="1" vertex="1">
          <mxGeometry x="1400" y="640" width="100" height="40" as="geometry" />
        </mxCell>
        <mxCell id="aZpTDbssM8xVi3ptUcBP-20" value="has" style="shape=rhombus;perimeter=rhombusPerimeter;whiteSpace=wrap;html=1;align=center;" parent="1" vertex="1">
          <mxGeometry x="1080" y="670" width="120" height="60" as="geometry" />
        </mxCell>
        <mxCell id="aZpTDbssM8xVi3ptUcBP-21" value="" style="endArrow=none;html=1;rounded=0;exitX=1;exitY=0.5;exitDx=0;exitDy=0;entryX=0;entryY=0.5;entryDx=0;entryDy=0;" parent="1" source="aZpTDbssM8xVi3ptUcBP-20" target="aZpTDbssM8xVi3ptUcBP-13" edge="1">
          <mxGeometry relative="1" as="geometry">
            <mxPoint x="1180" y="510" as="sourcePoint" />
            <mxPoint x="1340" y="510" as="targetPoint" />
          </mxGeometry>
        </mxCell>
        <mxCell id="aZpTDbssM8xVi3ptUcBP-23" value="" style="fontSize=12;html=1;endArrow=ERoneToMany;rounded=0;strokeWidth=1;endSize=10;startArrow=none;startFill=0;entryX=1;entryY=0.5;entryDx=0;entryDy=0;exitX=0;exitY=0.5;exitDx=0;exitDy=0;" parent="1" source="aZpTDbssM8xVi3ptUcBP-20" target="pPZMuFNUeKhr5VNqopDP-14" edge="1">
          <mxGeometry width="100" height="100" relative="1" as="geometry">
            <mxPoint x="1060" y="540" as="sourcePoint" />
            <mxPoint x="1120" y="600" as="targetPoint" />
          </mxGeometry>
        </mxCell>
        <mxCell id="aZpTDbssM8xVi3ptUcBP-24" value="belongs to&amp;nbsp;" style="shape=rhombus;perimeter=rhombusPerimeter;whiteSpace=wrap;html=1;align=center;" parent="1" vertex="1">
          <mxGeometry x="1070" y="80" width="120" height="60" as="geometry" />
        </mxCell>
        <mxCell id="aZpTDbssM8xVi3ptUcBP-25" value="ParkingService" style="rounded=1;arcSize=10;whiteSpace=wrap;html=1;align=center;" parent="1" vertex="1">
          <mxGeometry x="1280" y="90" width="100" height="40" as="geometry" />
        </mxCell>
        <mxCell id="aZpTDbssM8xVi3ptUcBP-26" value="parkingServiceId" style="ellipse;whiteSpace=wrap;html=1;align=center;fontStyle=4;" parent="1" vertex="1">
          <mxGeometry x="1200" y="30" width="100" height="40" as="geometry" />
        </mxCell>
        <mxCell id="aZpTDbssM8xVi3ptUcBP-27" value="bookingId" style="ellipse;whiteSpace=wrap;html=1;align=center;" parent="1" vertex="1">
          <mxGeometry x="1310" y="30" width="100" height="40" as="geometry" />
        </mxCell>
        <mxCell id="aZpTDbssM8xVi3ptUcBP-28" value="parkingPlateNo" style="ellipse;whiteSpace=wrap;html=1;align=center;" parent="1" vertex="1">
          <mxGeometry x="1400" y="70" width="100" height="40" as="geometry" />
        </mxCell>
        <mxCell id="aZpTDbssM8xVi3ptUcBP-29" value="" style="endArrow=none;html=1;rounded=0;entryX=0.023;entryY=0.742;entryDx=0;entryDy=0;entryPerimeter=0;exitX=1;exitY=0.5;exitDx=0;exitDy=0;" parent="1" source="aZpTDbssM8xVi3ptUcBP-25" target="aZpTDbssM8xVi3ptUcBP-28" edge="1">
          <mxGeometry relative="1" as="geometry">
            <mxPoint x="1250" y="210" as="sourcePoint" />
            <mxPoint x="1410" y="210" as="targetPoint" />
          </mxGeometry>
        </mxCell>
        <mxCell id="aZpTDbssM8xVi3ptUcBP-30" value="" style="endArrow=none;html=1;rounded=0;exitX=0.427;exitY=0.982;exitDx=0;exitDy=0;exitPerimeter=0;entryX=0.657;entryY=-0.062;entryDx=0;entryDy=0;entryPerimeter=0;" parent="1" source="aZpTDbssM8xVi3ptUcBP-27" target="aZpTDbssM8xVi3ptUcBP-25" edge="1">
          <mxGeometry relative="1" as="geometry">
            <mxPoint x="1250" y="169.57" as="sourcePoint" />
            <mxPoint x="1410" y="169.57" as="targetPoint" />
          </mxGeometry>
        </mxCell>
        <mxCell id="aZpTDbssM8xVi3ptUcBP-31" value="" style="endArrow=none;html=1;rounded=0;exitX=0.657;exitY=0.938;exitDx=0;exitDy=0;exitPerimeter=0;entryX=0;entryY=0;entryDx=0;entryDy=0;" parent="1" source="aZpTDbssM8xVi3ptUcBP-26" target="aZpTDbssM8xVi3ptUcBP-25" edge="1">
          <mxGeometry relative="1" as="geometry">
            <mxPoint x="1170" y="259.57" as="sourcePoint" />
            <mxPoint x="1330" y="259.57" as="targetPoint" />
          </mxGeometry>
        </mxCell>
        <mxCell id="aZpTDbssM8xVi3ptUcBP-35" value="" style="edgeStyle=entityRelationEdgeStyle;fontSize=12;html=1;endArrow=ERzeroToOne;endFill=1;rounded=0;entryX=1;entryY=0.5;entryDx=0;entryDy=0;exitX=0;exitY=0.5;exitDx=0;exitDy=0;" parent="1" source="aZpTDbssM8xVi3ptUcBP-24" target="pPZMuFNUeKhr5VNqopDP-27" edge="1">
          <mxGeometry width="100" height="100" relative="1" as="geometry">
            <mxPoint x="1040" y="270" as="sourcePoint" />
            <mxPoint x="1140" y="170" as="targetPoint" />
          </mxGeometry>
        </mxCell>
        <mxCell id="aZpTDbssM8xVi3ptUcBP-37" value="" style="endArrow=none;html=1;rounded=0;exitX=1;exitY=0.5;exitDx=0;exitDy=0;entryX=0;entryY=0.5;entryDx=0;entryDy=0;" parent="1" source="aZpTDbssM8xVi3ptUcBP-24" target="aZpTDbssM8xVi3ptUcBP-25" edge="1">
          <mxGeometry relative="1" as="geometry">
            <mxPoint x="1199.13" y="300" as="sourcePoint" />
            <mxPoint x="1199.13" y="370" as="targetPoint" />
          </mxGeometry>
        </mxCell>
        <mxCell id="aZpTDbssM8xVi3ptUcBP-38" value="" style="endArrow=none;html=1;rounded=0;exitX=0.723;exitY=1.036;exitDx=0;exitDy=0;entryX=0.127;entryY=0.036;entryDx=0;entryDy=0;exitPerimeter=0;entryPerimeter=0;" parent="1" source="aZpTDbssM8xVi3ptUcBP-15" target="aZpTDbssM8xVi3ptUcBP-13" edge="1">
          <mxGeometry relative="1" as="geometry">
            <mxPoint x="1210" y="710" as="sourcePoint" />
            <mxPoint x="1290" y="710" as="targetPoint" />
          </mxGeometry>
        </mxCell>
        <mxCell id="aZpTDbssM8xVi3ptUcBP-39" value="" style="endArrow=none;html=1;rounded=0;exitX=0.5;exitY=1;exitDx=0;exitDy=0;entryX=0.5;entryY=0;entryDx=0;entryDy=0;" parent="1" source="aZpTDbssM8xVi3ptUcBP-17" target="aZpTDbssM8xVi3ptUcBP-13" edge="1">
          <mxGeometry relative="1" as="geometry">
            <mxPoint x="1220" y="720" as="sourcePoint" />
            <mxPoint x="1300" y="720" as="targetPoint" />
          </mxGeometry>
        </mxCell>
        <mxCell id="aZpTDbssM8xVi3ptUcBP-40" value="" style="endArrow=none;html=1;rounded=0;exitX=0.049;exitY=0.797;exitDx=0;exitDy=0;entryX=1;entryY=0.25;entryDx=0;entryDy=0;exitPerimeter=0;" parent="1" source="aZpTDbssM8xVi3ptUcBP-18" target="aZpTDbssM8xVi3ptUcBP-13" edge="1">
          <mxGeometry relative="1" as="geometry">
            <mxPoint x="1270" y="810" as="sourcePoint" />
            <mxPoint x="1350" y="810" as="targetPoint" />
          </mxGeometry>
        </mxCell>
        <mxCell id="aZpTDbssM8xVi3ptUcBP-41" value="" style="endArrow=none;html=1;rounded=0;exitX=0;exitY=0.5;exitDx=0;exitDy=0;entryX=1;entryY=0.5;entryDx=0;entryDy=0;" parent="1" source="aZpTDbssM8xVi3ptUcBP-16" target="aZpTDbssM8xVi3ptUcBP-13" edge="1">
          <mxGeometry relative="1" as="geometry">
            <mxPoint x="1250" y="790" as="sourcePoint" />
            <mxPoint x="1390" y="770" as="targetPoint" />
          </mxGeometry>
        </mxCell>
      </root>
    </mxGraphModel>
  </diagram>
</mxfile>
